<svg xmlns="http://www.w3.org/2000/svg" width="54.202" height="76.896" viewBox="0 0 54.202 76.896">
  <g id="ljtech" transform="translate(0 0.002)">
    <path id="Path_152" data-name="Path 152" d="M27.095,76.894a5.394,5.394,0,0,1-3.617-1.4L1.789,55.992A5.457,5.457,0,0,1,0,52.032V24.925A5.432,5.432,0,0,1,1.789,20.9L23.478,1.4a5.394,5.394,0,0,1,7.246,0L52.4,20.889a5.444,5.444,0,0,1,1.8,4.036V52.032a5.432,5.432,0,0,1-1.8,4.023L30.724,75.5a5.406,5.406,0,0,1-3.63,1.4ZM2.716,21.93a4.023,4.023,0,0,0-1.269,3V52.032a4.023,4.023,0,0,0,1.333,3L24.4,74.47a4.023,4.023,0,0,0,5.394,0L51.474,54.964a4.036,4.036,0,0,0,1.345-2.932V24.925a4.036,4.036,0,0,0-1.345-3L29.8,2.424a4.023,4.023,0,0,0-5.394,0Z" fill="#82cfac"/>
    <path id="Path_153" data-name="Path 153" d="M3.7,22.033,23.59,4.126a4.328,4.328,0,0,1,5.8,0L49.264,22.033a4.328,4.328,0,0,1,1.447,3.236v24.76a4.315,4.315,0,0,1-1.434,3.223L29.39,71.146a4.328,4.328,0,0,1-5.8,0L3.7,53.252A4.315,4.315,0,0,1,2.27,50.029v-24.8a4.353,4.353,0,0,1,1.434-3.2Z" transform="translate(0.611 0.811)" fill="#1da96a"/>
    <path id="Path_154" data-name="Path 154" d="M26.419,17,2.662,19.538a1.2,1.2,0,0,1-.152.381L26.419,50.707Z" transform="translate(0.675 4.575)" fill="#05a05a"/>
    <path id="Path_155" data-name="Path 155" d="M3.6,42.877l2.792,2.538L23.488,60.771a4.125,4.125,0,0,0,1.371.825,4.251,4.251,0,0,0,1.523.279V44.108L2.65,41.57A4.125,4.125,0,0,0,3.6,42.877Z" transform="translate(0.713 11.186)" fill="#36b37a"/>
    <path id="Path_156" data-name="Path 156" d="M44.13,22.036,24.256,4.129l-.2-.152A4.378,4.378,0,0,0,21.35,3V20.767l23.668,2.538A4.467,4.467,0,0,0,44.13,22.036Z" transform="translate(5.745 0.808)" fill="#36b37a"/>
    <path id="Path_157" data-name="Path 157" d="M21.35,50.707l23.77-2.538c0-.114.114-.254.152-.368L21.35,17Z" transform="translate(5.745 4.575)" fill="#049051"/>
  </g>
</svg>
